<svg width="9" height="15" viewBox="0 0 9 15" fill="none" xmlns="http://www.w3.org/2000/svg">
<path d="M7.91667 2.5H5.41667C4.95642 2.5 4.58333 2.8731 4.58333 3.33333V5.83333H7.91667C8.01142 5.83123 8.10133 5.87533 8.15767 5.95158C8.214 6.02783 8.22983 6.12667 8.2 6.21667L7.58333 8.05C7.5265 8.21825 7.36925 8.332 7.19167 8.33333H4.58333V14.5833C4.58333 14.8134 4.39675 15 4.16667 15H2.08333C1.85322 15 1.66667 14.8134 1.66667 14.5833V8.33333H0.416667C0.18655 8.33333 0 8.14675 0 7.91667V6.25C0 6.01992 0.18655 5.83333 0.416667 5.83333H1.66667V3.33333C1.66667 1.49238 3.15908 0 5 0H7.91667C8.14675 0 8.33333 0.18655 8.33333 0.416667V2.08333C8.33333 2.31345 8.14675 2.5 7.91667 2.5Z" fill="#264BFF"/>
</svg>
