<svg width="32" height="32" viewBox="0 0 32 32" fill="none" xmlns="http://www.w3.org/2000/svg">
<rect x="0.5" y="0.5" width="31" height="31" rx="15.5" stroke="black" stroke-opacity="0.09"/>
<path d="M19.7507 11H17.2507C16.7904 11 16.4173 11.3731 16.4173 11.8333V14.3333H19.7507C19.8454 14.3312 19.9353 14.3753 19.9917 14.4516C20.048 14.5278 20.0638 14.6267 20.034 14.7167L19.4173 16.55C19.3605 16.7182 19.2032 16.832 19.0257 16.8333H16.4173V23.0833C16.4173 23.3134 16.2307 23.5 16.0007 23.5H13.9173C13.6872 23.5 13.5007 23.3134 13.5007 23.0833V16.8333H12.2507C12.0205 16.8333 11.834 16.6467 11.834 16.4167V14.75C11.834 14.5199 12.0205 14.3333 12.2507 14.3333H13.5007V11.8333C13.5007 9.99238 14.9931 8.5 16.834 8.5H19.7507C19.9807 8.5 20.1673 8.68655 20.1673 8.91667V10.5833C20.1673 10.8134 19.9807 11 19.7507 11Z" fill="#264BFF"/>
</svg>
