<svg width="16" height="16" viewBox="0 0 16 16" fill="none" xmlns="http://www.w3.org/2000/svg">
<path d="M10.3125 7.8125C10.3125 8.30695 10.1659 8.7903 9.89117 9.20143C9.61647 9.61255 9.22602 9.93298 8.76921 10.1222C8.31239 10.3114 7.80973 10.3609 7.32477 10.2645C6.83982 10.168 6.39436 9.9299 6.04473 9.58027C5.6951 9.23064 5.457 8.78518 5.36054 8.30023C5.26407 7.81527 5.31358 7.31261 5.5028 6.85579C5.69202 6.39898 6.01245 6.00853 6.42357 5.73383C6.8347 5.45912 7.31805 5.3125 7.8125 5.3125C8.47531 5.31326 9.11075 5.57689 9.57943 6.04557C10.0481 6.51425 10.3117 7.14969 10.3125 7.8125ZM15.625 4.375V11.25C15.6237 12.4099 15.1623 13.522 14.3421 14.3421C13.522 15.1623 12.4099 15.6237 11.25 15.625H4.375C3.21508 15.6237 2.10305 15.1623 1.28286 14.3421C0.462672 13.522 0.00131365 12.4099 0 11.25V4.375C0.00131365 3.21508 0.462672 2.10305 1.28286 1.28286C2.10305 0.462672 3.21508 0.00131365 4.375 0H11.25C12.4099 0.00131365 13.522 0.462672 14.3421 1.28286C15.1623 2.10305 15.6237 3.21508 15.625 4.375ZM11.5625 7.8125C11.5625 7.07082 11.3426 6.3458 10.9305 5.72911C10.5185 5.11243 9.93279 4.63178 9.24756 4.34795C8.56234 4.06412 7.80834 3.98986 7.08091 4.13456C6.35348 4.27925 5.6853 4.6364 5.16085 5.16085C4.6364 5.6853 4.27925 6.35348 4.13456 7.08091C3.98986 7.80834 4.06412 8.56234 4.34795 9.24756C4.63178 9.93279 5.11243 10.5185 5.72911 10.9305C6.3458 11.3426 7.07082 11.5625 7.8125 11.5625C8.80672 11.5614 9.75989 11.1659 10.4629 10.4629C11.1659 9.75989 11.5614 8.80672 11.5625 7.8125ZM12.8125 3.75C12.8125 3.56458 12.7575 3.38332 12.6545 3.22915C12.5515 3.07498 12.4051 2.95482 12.2338 2.88386C12.0625 2.81291 11.874 2.79434 11.6921 2.83051C11.5102 2.86669 11.3432 2.95598 11.2121 3.08709C11.081 3.2182 10.9917 3.38525 10.9555 3.5671C10.9193 3.74896 10.9379 3.93746 11.0089 4.10877C11.0798 4.28007 11.2 4.42649 11.3542 4.5295C11.5083 4.63252 11.6896 4.6875 11.875 4.6875C12.1236 4.6875 12.3621 4.58873 12.5379 4.41291C12.7137 4.2371 12.8125 3.99864 12.8125 3.75Z" fill="white"/>
</svg>
