<svg width="32" height="32" viewBox="0 0 32 32" fill="none" xmlns="http://www.w3.org/2000/svg">
<rect width="32" height="32" rx="16" fill="#264BFF"/>
<path d="M18.5 16C18.5 16.4945 18.3534 16.9778 18.0787 17.3889C17.804 17.8 17.4135 18.1205 16.9567 18.3097C16.4999 18.4989 15.9972 18.5484 15.5123 18.452C15.0273 18.3555 14.5819 18.1174 14.2322 17.7678C13.8826 17.4181 13.6445 16.9727 13.548 16.4877C13.4516 16.0028 13.5011 15.5001 13.6903 15.0433C13.8795 14.5865 14.2 14.196 14.6111 13.9213C15.0222 13.6466 15.5055 13.5 16 13.5C16.6628 13.5008 17.2983 13.7644 17.7669 14.2331C18.2356 14.7017 18.4992 15.3372 18.5 16ZM23.8125 12.5625V19.4375C23.8112 20.5974 23.3498 21.7095 22.5296 22.5296C21.7095 23.3498 20.5974 23.8112 19.4375 23.8125H12.5625C11.4026 23.8112 10.2905 23.3498 9.47036 22.5296C8.65017 21.7095 8.18881 20.5974 8.1875 19.4375V12.5625C8.18881 11.4026 8.65017 10.2905 9.47036 9.47036C10.2905 8.65017 11.4026 8.18881 12.5625 8.1875H19.4375C20.5974 8.18881 21.7095 8.65017 22.5296 9.47036C23.3498 10.2905 23.8112 11.4026 23.8125 12.5625ZM19.75 16C19.75 15.2583 19.5301 14.5333 19.118 13.9166C18.706 13.2999 18.1203 12.8193 17.4351 12.5355C16.7498 12.2516 15.9958 12.1774 15.2684 12.3221C14.541 12.4668 13.8728 12.8239 13.3483 13.3483C12.8239 13.8728 12.4668 14.541 12.3221 15.2684C12.1774 15.9958 12.2516 16.7498 12.5355 17.4351C12.8193 18.1203 13.2999 18.706 13.9166 19.118C14.5333 19.5301 15.2583 19.75 16 19.75C16.9942 19.7489 17.9474 19.3534 18.6504 18.6504C19.3534 17.9474 19.7489 16.9942 19.75 16ZM21 11.9375C21 11.7521 20.945 11.5708 20.842 11.4167C20.739 11.2625 20.5926 11.1423 20.4213 11.0714C20.25 11.0004 20.0615 10.9818 19.8796 11.018C19.6977 11.0542 19.5307 11.1435 19.3996 11.2746C19.2685 11.4057 19.1792 11.5727 19.143 11.7546C19.1068 11.9365 19.1254 12.125 19.1964 12.2963C19.2673 12.4676 19.3875 12.614 19.5417 12.717C19.6958 12.82 19.8771 12.875 20.0625 12.875C20.3111 12.875 20.5496 12.7762 20.7254 12.6004C20.9012 12.4246 21 12.1861 21 11.9375Z" fill="white"/>
</svg>
