<svg width="32" height="32" viewBox="0 0 32 32" fill="none" xmlns="http://www.w3.org/2000/svg">
<rect x="0.5" y="0.5" width="31" height="31" rx="15.5" stroke="black" stroke-opacity="0.09"/>
<path fill-rule="evenodd" clip-rule="evenodd" d="M16.5104 12.796V14.493C16.8656 13.9515 17.3554 13.5116 17.9318 13.2164C18.5082 12.9212 19.1514 12.7808 19.7984 12.809C23.2534 12.809 24.0004 14.969 24.0004 17.779V23.5H20.8004V18.428C20.8004 17.218 20.5564 15.662 18.6724 15.662C16.8454 15.662 16.5334 16.979 16.5334 18.338V23.5H13.3434V12.796H16.5104ZM11.2004 10.106C11.2 10.423 11.106 10.7328 10.9302 10.9967C10.7545 11.2605 10.5047 11.4665 10.2124 11.589C9.92009 11.7105 9.59828 11.7423 9.28789 11.6803C8.97751 11.6183 8.69257 11.4654 8.46936 11.241C8.24572 11.0165 8.09347 10.7308 8.03175 10.42C7.97003 10.1091 8.00159 9.78698 8.12247 9.49403C8.24335 9.20108 8.44814 8.95041 8.71111 8.77354C8.97407 8.59667 9.28345 8.5015 9.60036 8.5C9.81094 8.50013 10.0194 8.5418 10.2139 8.62263C10.4083 8.70346 10.5849 8.82186 10.7336 8.97104C10.8822 9.12023 10.9999 9.29726 11.08 9.49202C11.1601 9.68677 11.201 9.89542 11.2004 10.106Z" fill="#264BFF"/>
<path d="M11.2 12.8086H8V23.4996H11.2V12.8086Z" fill="#264BFF"/>
</svg>
