<svg width="16" height="15" viewBox="0 0 16 15" fill="none" xmlns="http://www.w3.org/2000/svg">
<path fill-rule="evenodd" clip-rule="evenodd" d="M8.51036 4.296V5.993C8.86559 5.45154 9.3554 5.01165 9.93179 4.71644C10.5082 4.42123 11.1514 4.28083 11.7984 4.309C15.2534 4.309 16.0004 6.469 16.0004 9.279V15H12.8004V9.928C12.8004 8.718 12.5564 7.162 10.6724 7.162C8.84536 7.162 8.53336 8.479 8.53336 9.838V15H5.34336V4.296H8.51036ZM3.20036 1.606C3.19997 1.923 3.106 2.23284 2.93024 2.49665C2.75448 2.76047 2.50475 2.96653 2.21236 3.089C1.92009 3.21048 1.59828 3.24226 1.28789 3.18029C0.977505 3.11832 0.692573 2.9654 0.469359 2.741C0.245724 2.51646 0.0934732 2.23081 0.0317509 1.91997C-0.0299714 1.60913 0.00159127 1.28698 0.122469 0.994027C0.243347 0.701077 0.448144 0.450407 0.711106 0.273539C0.974067 0.0966713 1.28345 0.0015024 1.60036 0C1.81094 0.000130505 2.01943 0.0418039 2.21388 0.122633C2.40834 0.203462 2.58494 0.321859 2.73356 0.471042C2.88219 0.620226 2.99992 0.797265 3.08002 0.992019C3.16012 1.18677 3.20102 1.39542 3.20036 1.606Z" fill="#264BFF"/>
<path d="M3.2 4.30859H0V14.9996H3.2V4.30859Z" fill="#264BFF"/>
</svg>
