<svg width="32" height="32" viewBox="0 0 32 32" fill="none" xmlns="http://www.w3.org/2000/svg">
<rect x="0.5" y="0.5" width="31" height="31" rx="15.5" stroke="black" stroke-opacity="0.09"/>
<g clip-path="url(#clip0_126_1767)">
<g filter="url(#filter0_d_126_1767)">
<path d="M19.4501 11.115C18.9376 10.5296 18.655 9.77805 18.6551 9H16.3376V18.3C16.3201 18.8034 16.1078 19.2803 15.7453 19.6301C15.3829 19.9799 14.8988 20.1753 14.3951 20.175C13.3301 20.175 12.4451 19.305 12.4451 18.225C12.4451 16.935 13.6901 15.9675 14.9726 16.365V13.995C12.3851 13.65 10.1201 15.66 10.1201 18.225C10.1201 20.7225 12.1901 22.5 14.3876 22.5C16.7426 22.5 18.6551 20.5875 18.6551 18.225V13.5075C19.5949 14.1824 20.7231 14.5445 21.8801 14.5425V12.225C21.8801 12.225 20.4701 12.2925 19.4501 11.115Z" fill="#264BFF"/>
</g>
</g>
<defs>
<filter id="filter0_d_126_1767" x="6.12012" y="9" width="19.76" height="21.5" filterUnits="userSpaceOnUse" color-interpolation-filters="sRGB">
<feFlood flood-opacity="0" result="BackgroundImageFix"/>
<feColorMatrix in="SourceAlpha" type="matrix" values="0 0 0 0 0 0 0 0 0 0 0 0 0 0 0 0 0 0 127 0" result="hardAlpha"/>
<feOffset dy="4"/>
<feGaussianBlur stdDeviation="2"/>
<feComposite in2="hardAlpha" operator="out"/>
<feColorMatrix type="matrix" values="0 0 0 0 0 0 0 0 0 0 0 0 0 0 0 0 0 0 0.25 0"/>
<feBlend mode="normal" in2="BackgroundImageFix" result="effect1_dropShadow_126_1767"/>
<feBlend mode="normal" in="SourceGraphic" in2="effect1_dropShadow_126_1767" result="shape"/>
</filter>
<clipPath id="clip0_126_1767">
<rect width="18" height="18" fill="white" transform="translate(7 6.75)"/>
</clipPath>
</defs>
</svg>
