<svg width="18" height="16" viewBox="0 0 18 16" fill="none" xmlns="http://www.w3.org/2000/svg">
<g filter="url(#filter0_d_126_1769)">
<path d="M12.4501 2.115C11.9376 1.52965 11.655 0.778049 11.6551 0H9.33762V9.3C9.32011 9.80339 9.10776 10.2803 8.74535 10.6301C8.38294 10.9799 7.89882 11.1753 7.39512 11.175C6.33012 11.175 5.44512 10.305 5.44512 9.225C5.44512 7.935 6.69012 6.9675 7.97262 7.365V4.995C5.38512 4.65 3.12012 6.66 3.12012 9.225C3.12012 11.7225 5.19012 13.5 7.38762 13.5C9.74262 13.5 11.6551 11.5875 11.6551 9.225V4.5075C12.5949 5.18239 13.7231 5.54449 14.8801 5.5425V3.225C14.8801 3.225 13.4701 3.2925 12.4501 2.115Z" fill="#264BFF"/>
</g>
<defs>
<filter id="filter0_d_126_1769" x="-0.879883" y="0" width="19.76" height="21.5" filterUnits="userSpaceOnUse" color-interpolation-filters="sRGB">
<feFlood flood-opacity="0" result="BackgroundImageFix"/>
<feColorMatrix in="SourceAlpha" type="matrix" values="0 0 0 0 0 0 0 0 0 0 0 0 0 0 0 0 0 0 127 0" result="hardAlpha"/>
<feOffset dy="4"/>
<feGaussianBlur stdDeviation="2"/>
<feComposite in2="hardAlpha" operator="out"/>
<feColorMatrix type="matrix" values="0 0 0 0 0 0 0 0 0 0 0 0 0 0 0 0 0 0 0.25 0"/>
<feBlend mode="normal" in2="BackgroundImageFix" result="effect1_dropShadow_126_1769"/>
<feBlend mode="normal" in="SourceGraphic" in2="effect1_dropShadow_126_1769" result="shape"/>
</filter>
</defs>
</svg>
