<svg width="32" height="32" viewBox="0 0 32 32" fill="none" xmlns="http://www.w3.org/2000/svg">
<rect x="0.5" y="0.5" width="31" height="31" rx="15.5" stroke="black" stroke-opacity="0.09"/>
<path d="M21.2876 10.4325C20.5999 9.73812 19.7809 9.18752 18.8782 8.81281C17.9756 8.43811 17.0074 8.2468 16.0301 8.25004C11.9351 8.25004 8.5976 11.5875 8.5976 15.6825C8.5976 16.995 8.9426 18.27 9.5876 19.395L8.5376 23.25L12.4751 22.215C13.5626 22.8075 14.7851 23.1225 16.0301 23.1225C20.1251 23.1225 23.4626 19.785 23.4626 15.69C23.4626 13.7025 22.6901 11.835 21.2876 10.4325ZM16.0301 21.8625C14.9201 21.8625 13.8326 21.5625 12.8801 21L12.6551 20.865L10.3151 21.48L10.9376 19.2L10.7876 18.9675C10.1708 17.9828 9.84329 16.8445 9.8426 15.6825C9.8426 12.2775 12.6176 9.50254 16.0226 9.50254C17.6726 9.50254 19.2251 10.1475 20.3876 11.3175C20.9633 11.8904 21.4195 12.5719 21.7298 13.3225C22.0401 14.0731 22.1982 14.8779 22.1951 15.69C22.2101 19.095 19.4351 21.8625 16.0301 21.8625ZM19.4201 17.2425C19.2326 17.1525 18.3176 16.7025 18.1526 16.635C17.9801 16.575 17.8601 16.545 17.7326 16.725C17.6051 16.9125 17.2526 17.3325 17.1476 17.4525C17.0426 17.58 16.9301 17.595 16.7426 17.4975C16.5551 17.4075 15.9551 17.205 15.2501 16.575C14.6951 16.08 14.3276 15.4725 14.2151 15.285C14.1101 15.0975 14.2001 15 14.2976 14.9025C14.3801 14.82 14.4851 14.685 14.5751 14.58C14.6651 14.475 14.7026 14.3925 14.7626 14.2725C14.8226 14.145 14.7926 14.04 14.7476 13.95C14.7026 13.86 14.3276 12.945 14.1776 12.57C14.0276 12.21 13.8701 12.255 13.7576 12.2475H13.3976C13.2701 12.2475 13.0751 12.2925 12.9026 12.48C12.7376 12.6675 12.2576 13.1175 12.2576 14.0325C12.2576 14.9475 12.9251 15.8325 13.0151 15.9525C13.1051 16.08 14.3276 17.955 16.1876 18.7575C16.6301 18.9525 16.9751 19.065 17.2451 19.1475C17.6876 19.29 18.0926 19.2675 18.4151 19.2225C18.7751 19.17 19.5176 18.7725 19.6676 18.3375C19.8251 17.9025 19.8251 17.535 19.7726 17.4525C19.7201 17.37 19.6076 17.3325 19.4201 17.2425Z" fill="#264BFF"/>
</svg>
