<svg width="32" height="32" viewBox="0 0 32 32" fill="none" xmlns="http://www.w3.org/2000/svg">
<rect x="0.5" y="0.5" width="31" height="31" rx="15.5" stroke="black" stroke-opacity="0.09"/>
<path d="M18 16L14.5 18V14L18 16Z" fill="#264BFF" stroke="#264BFF" stroke-width="1.5" stroke-linecap="round" stroke-linejoin="round"/>
<path d="M6 16.7084V15.2924C6 12.3974 6 10.9494 6.905 10.0184C7.811 9.08639 9.237 9.04639 12.088 8.96539C13.438 8.92739 14.818 8.90039 16 8.90039C17.181 8.90039 18.561 8.92739 19.912 8.96539C22.763 9.04639 24.189 9.08639 25.094 10.0184C26 10.9494 26 12.3984 26 15.2924V16.7074C26 19.6034 26 21.0504 25.095 21.9824C24.189 22.9134 22.764 22.9544 19.912 23.0344C18.562 23.0734 17.182 23.1004 16 23.1004C14.6958 23.0965 13.3916 23.0745 12.088 23.0344C9.237 22.9544 7.811 22.9144 6.905 21.9824C6 21.0504 6 19.6024 6 16.7084Z" stroke="#264BFF" stroke-width="1.5"/>
</svg>
