<svg width="18" height="18" viewBox="0 0 18 18" fill="none" xmlns="http://www.w3.org/2000/svg">
<g clip-path="url(#clip0_2037_136)">
<path d="M1.125 9C1.125 11.0886 1.95469 13.0916 3.43153 14.5685C4.90838 16.0453 6.91142 16.875 9 16.875C11.0886 16.875 13.0916 16.0453 14.5685 14.5685C16.0453 13.0916 16.875 11.0886 16.875 9C16.875 6.91142 16.0453 4.90838 14.5685 3.43153C13.0916 1.95469 11.0886 1.125 9 1.125C6.91142 1.125 4.90838 1.95469 3.43153 3.43153C1.95469 4.90838 1.125 6.91142 1.125 9Z" stroke="white" stroke-width="1.5" stroke-linejoin="round"/>
<path d="M5.625 9C5.625 6.91142 5.98058 4.90838 6.61351 3.43153C7.24645 1.95469 8.10489 1.125 9 1.125C9.89511 1.125 10.7535 1.95469 11.3865 3.43153C12.0194 4.90838 12.375 6.91142 12.375 9C12.375 11.0886 12.0194 13.0916 11.3865 14.5685C10.7535 16.0453 9.89511 16.875 9 16.875C8.10489 16.875 7.24645 16.0453 6.61351 14.5685C5.98058 13.0916 5.625 11.0886 5.625 9Z" stroke="white" stroke-width="1.5" stroke-linejoin="round"/>
<path d="M1.6875 11.625H16.3125M1.6875 6.375H16.3125" stroke="white" stroke-width="1.5" stroke-linecap="round"/>
</g>
<defs>
<clipPath id="clip0_2037_136">
<rect width="18" height="18" fill="white"/>
</clipPath>
</defs>
</svg>
