<svg width="30" height="30" viewBox="0 0 30 30" fill="none" xmlns="http://www.w3.org/2000/svg">
<rect width="29.8592" height="29.8592" rx="14.9296" fill="#264BFF" fill-opacity="0.07"/>
<path d="M18.4295 10.2644H16.0968C15.6673 10.2644 15.3192 10.6125 15.3192 11.042V13.3747H18.4295C18.5179 13.3728 18.6018 13.4139 18.6544 13.4851C18.707 13.5562 18.7217 13.6484 18.6939 13.7324L18.1185 15.4431C18.0654 15.6001 17.9187 15.7062 17.753 15.7075H15.3192V21.5393C15.3192 21.754 15.1451 21.9281 14.9304 21.9281H12.9864C12.7717 21.9281 12.5976 21.754 12.5976 21.5393V15.7075H11.4313C11.2165 15.7075 11.0425 15.5334 11.0425 15.3187V13.7635C11.0425 13.5488 11.2165 13.3747 11.4313 13.3747H12.5976V11.042C12.5976 9.32418 13.9902 7.93164 15.708 7.93164H18.4295C18.6442 7.93164 18.8183 8.10571 18.8183 8.32043V9.8756C18.8183 10.0903 18.6442 10.2644 18.4295 10.2644Z" fill="#264BFF" fill-opacity="0.69"/>
</svg>
