<svg width="30" height="30" viewBox="0 0 30 30" fill="none" xmlns="http://www.w3.org/2000/svg">
<rect x="0.466549" y="0.466549" width="28.9261" height="28.9261" rx="14.463" stroke="#264BFF" stroke-width="0.933099"/>
<path d="M17.2622 14.9295C17.2622 15.3909 17.1254 15.8419 16.8691 16.2255C16.6128 16.6091 16.2484 16.9081 15.8222 17.0847C15.3959 17.2612 14.9269 17.3074 14.4744 17.2174C14.0219 17.1274 13.6062 16.9052 13.28 16.579C12.9537 16.2527 12.7316 15.8371 12.6416 15.3846C12.5515 14.9321 12.5977 14.463 12.7743 14.0368C12.9509 13.6105 13.2499 13.2462 13.6335 12.9899C14.0171 12.7335 14.4681 12.5967 14.9295 12.5967C15.5479 12.5974 16.1409 12.8434 16.5782 13.2808C17.0155 13.7181 17.2615 14.311 17.2622 14.9295ZM22.2193 11.722V18.137C22.2181 19.2193 21.7876 20.257 21.0223 21.0223C20.257 21.7876 19.2193 22.2181 18.137 22.2193H11.722C10.6396 22.2181 9.602 21.7876 8.83668 21.0223C8.07137 20.257 7.64087 19.2193 7.63965 18.137V11.722C7.64087 10.6396 8.07137 9.602 8.83668 8.83668C9.602 8.07137 10.6396 7.64087 11.722 7.63965H18.137C19.2193 7.64087 20.257 8.07137 21.0223 8.83668C21.7876 9.602 22.2181 10.6396 22.2193 11.722ZM18.4286 14.9295C18.4286 14.2374 18.2234 13.5609 17.8389 12.9855C17.4544 12.41 16.9079 11.9616 16.2685 11.6967C15.6292 11.4319 14.9256 11.3626 14.2468 11.4976C13.5681 11.6326 12.9446 11.9659 12.4552 12.4552C11.9659 12.9446 11.6326 13.5681 11.4976 14.2468C11.3626 14.9256 11.4319 15.6292 11.6967 16.2685C11.9616 16.9079 12.41 17.4544 12.9855 17.8389C13.5609 18.2234 14.2374 18.4286 14.9295 18.4286C15.8572 18.4276 16.7466 18.0586 17.4026 17.4026C18.0586 16.7466 18.4276 15.8572 18.4286 14.9295ZM19.595 11.1388C19.595 10.9658 19.5437 10.7966 19.4475 10.6528C19.3514 10.5089 19.2148 10.3968 19.055 10.3306C18.8951 10.2644 18.7192 10.247 18.5495 10.2808C18.3798 10.3146 18.224 10.3979 18.1016 10.5202C17.9793 10.6425 17.896 10.7984 17.8622 10.9681C17.8285 11.1378 17.8458 11.3137 17.912 11.4735C17.9782 11.6334 18.0903 11.77 18.2342 11.8661C18.378 11.9622 18.5472 12.0135 18.7202 12.0135C18.9522 12.0135 19.1747 11.9214 19.3388 11.7573C19.5028 11.5933 19.595 11.3708 19.595 11.1388Z" fill="#264BFF"/>
</svg>
