<svg width="30" height="30" viewBox="0 0 30 30" fill="none" xmlns="http://www.w3.org/2000/svg">
<rect width="29.8592" height="29.8592" rx="14.9296" fill="#264BFF" fill-opacity="0.07"/>
<path fill-rule="evenodd" clip-rule="evenodd" d="M15.4059 11.9402V13.5237C15.7374 13.0185 16.1944 12.608 16.7323 12.3325C17.2701 12.0571 17.8702 11.9261 18.4739 11.9524C21.6978 11.9524 22.3948 13.9679 22.3948 16.5899V21.9281H19.4089V17.1954C19.4089 16.0664 19.1812 14.6145 17.4233 14.6145C15.7185 14.6145 15.4274 15.8434 15.4274 17.1115V21.9281H12.4508V11.9402H15.4059ZM10.4512 9.4302C10.4508 9.72599 10.3631 10.0151 10.1991 10.2613C10.0351 10.5074 9.80209 10.6997 9.52926 10.814C9.25654 10.9273 8.95626 10.957 8.66664 10.8992C8.37702 10.8413 8.11115 10.6987 7.90287 10.4893C7.69419 10.2797 7.55213 10.0132 7.49454 9.72316C7.43694 9.43312 7.46639 9.13252 7.57918 8.85917C7.69198 8.58581 7.88307 8.35191 8.12844 8.18688C8.37381 8.02184 8.6625 7.93304 8.9582 7.93164C9.1547 7.93176 9.34924 7.97065 9.53068 8.04607C9.71213 8.12149 9.87691 8.23197 10.0156 8.37117C10.1543 8.51037 10.2641 8.67557 10.3389 8.85729C10.4136 9.03902 10.4518 9.2337 10.4512 9.4302Z" fill="#264BFF" fill-opacity="0.69"/>
<path d="M10.4508 11.9521H7.46484V21.9279H10.4508V11.9521Z" fill="#264BFF" fill-opacity="0.69"/>
</svg>
