<svg width="30" height="30" viewBox="0 0 30 30" fill="none" xmlns="http://www.w3.org/2000/svg">
<rect width="29.8592" height="29.8592" rx="14.9296" fill="#264BFF" fill-opacity="0.07"/>
<path d="M18.1489 10.3719C17.6707 9.82575 17.407 9.12443 17.4071 8.39844H15.2447V17.0763C15.2283 17.546 15.0302 17.991 14.692 18.3174C14.3538 18.6438 13.9021 18.8261 13.4321 18.8258C12.4384 18.8258 11.6126 18.014 11.6126 17.0063C11.6126 15.8026 12.7743 14.8998 13.971 15.2707V13.0593C11.5566 12.7373 9.44312 14.6129 9.44312 17.0063C9.44312 19.3367 11.3746 20.9953 13.4251 20.9953C15.6226 20.9953 17.4071 19.2107 17.4071 17.0063V12.6044C18.284 13.2341 19.3368 13.572 20.4164 13.5701V11.4077C20.4164 11.4077 19.1007 11.4707 18.1489 10.3719Z" fill="#264BFF" fill-opacity="0.69"/>
</svg>
