<svg width="30" height="30" viewBox="0 0 30 30" fill="none" xmlns="http://www.w3.org/2000/svg">
<rect width="29.8592" height="29.8592" rx="14.9296" fill="#264BFF" fill-opacity="0.07"/>
<path d="M19.8633 9.73477C19.2216 9.0868 18.4574 8.57304 17.6151 8.2234C16.7729 7.87377 15.8695 7.69526 14.9575 7.69828C11.1365 7.69828 8.02229 10.8125 8.02229 14.6335C8.02229 15.8582 8.34421 17.0479 8.94606 18.0977L7.96631 21.6948L11.6404 20.729C12.6551 21.2819 13.7958 21.5758 14.9575 21.5758C18.7786 21.5758 21.8928 18.4616 21.8928 14.6405C21.8928 12.786 21.172 11.0434 19.8633 9.73477ZM14.9575 20.4001C13.9218 20.4001 12.9071 20.1202 12.0183 19.5953L11.8083 19.4693L9.62489 20.0432L10.2057 17.9157L10.0658 17.6988C9.49021 16.7799 9.18465 15.7178 9.184 14.6335C9.184 11.4563 11.7734 8.86699 14.9506 8.86699C16.4902 8.86699 17.9388 9.46883 19.0235 10.5606C19.5607 11.0951 19.9864 11.731 20.2759 12.4314C20.5655 13.1318 20.713 13.8827 20.7101 14.6405C20.7241 17.8177 18.1348 20.4001 14.9575 20.4001ZM18.1208 16.0892C17.9458 16.0052 17.092 15.5853 16.9381 15.5223C16.7771 15.4663 16.6651 15.4383 16.5462 15.6063C16.4272 15.7812 16.0983 16.1731 16.0003 16.2851C15.9023 16.4041 15.7973 16.4181 15.6224 16.3271C15.4474 16.2431 14.8876 16.0542 14.2297 15.4663C13.7119 15.0044 13.3689 14.4376 13.264 14.2626C13.166 14.0877 13.25 13.9967 13.341 13.9057C13.4179 13.8287 13.5159 13.7028 13.5999 13.6048C13.6839 13.5068 13.7189 13.4298 13.7748 13.3179C13.8308 13.1989 13.8028 13.1009 13.7609 13.0169C13.7189 12.933 13.3689 12.0792 13.229 11.7293C13.089 11.3934 12.9421 11.4353 12.8371 11.4283H12.5012C12.3822 11.4283 12.2002 11.4703 12.0393 11.6453C11.8853 11.8202 11.4374 12.2401 11.4374 13.0939C11.4374 13.9477 12.0603 14.7735 12.1443 14.8855C12.2282 15.0044 13.3689 16.754 15.1045 17.5028C15.5174 17.6848 15.8393 17.7897 16.0913 17.8667C16.5042 17.9997 16.8821 17.9787 17.183 17.9367C17.5189 17.8877 18.2117 17.5168 18.3517 17.1109C18.4987 16.705 18.4987 16.3621 18.4497 16.2851C18.4007 16.2081 18.2957 16.1731 18.1208 16.0892Z" fill="#264BFF" fill-opacity="0.69"/>
</svg>
