<svg width="30" height="30" viewBox="0 0 30 30" fill="none" xmlns="http://www.w3.org/2000/svg">
<rect width="29.8592" height="29.8592" rx="14.9296" fill="#264BFF" fill-opacity="0.07"/>
<path d="M16.7956 14.9297L13.5298 16.7959V13.0635L16.7956 14.9297Z" fill="#264BFF" fill-opacity="0.69" stroke="#264BFF" stroke-opacity="0.69" stroke-width="1.39965" stroke-linecap="round" stroke-linejoin="round"/>
<path d="M5.59863 15.5903V14.2691C5.59863 11.5677 5.59863 10.2166 6.44309 9.34789C7.28847 8.47824 8.61907 8.44092 11.2793 8.36534C12.539 8.32988 13.8267 8.30469 14.9296 8.30469C16.0316 8.30469 17.3193 8.32988 18.5799 8.36534C21.2402 8.44092 22.5708 8.47824 23.4152 9.34789C24.2606 10.2166 24.2606 11.5687 24.2606 14.2691V15.5894C24.2606 18.2916 24.2606 19.6418 23.4162 20.5115C22.5708 21.3802 21.2411 21.4185 18.5799 21.4931C17.3202 21.5295 16.0325 21.5547 14.9296 21.5547C13.7126 21.551 12.4958 21.5305 11.2793 21.4931C8.61907 21.4185 7.28847 21.3811 6.44309 20.5115C5.59863 19.6418 5.59863 18.2907 5.59863 15.5903Z" stroke="#264BFF" stroke-opacity="0.69" stroke-width="1.39965"/>
</svg>
